<svg id="Layer_1"  height="24" viewBox="0 0 73 73" width="24" xmlns="http://www.w3.org/2000/svg"><g id="_x32_78"><path d="m5.5461154 38.1539421c.6007032 10.2996788 7.2432942 20.5366325 17.2047729 25.3806763-2.4346313-.3740845-4.7750244-.4663086-7.447998-.3458252-1.2260742.0552368-1.550415 1.7607384-.4470825 2.298336 2.2755299 1.1088409 8.7620926 1.9529877 11.3237305 2.1125488 4.6131592.2872925 9.2607422.024292 13.8118896-.7828979 1.9703979-.3494873 4.2503052-.6726685 6.163208-1.4161987 7.1427765-1.8163567 14.045536-7.1074753 17.7835083-12.6516075 6.4448891-9.5588799 4.74226-25.3606186-2.314209-34.8220825-4.0108032-5.3776846-10.7056274-10.102478-20.1259155-10.8569336-17.8984427-3.2333887-37.1696444 10.3969039-35.9519043 31.0839843zm52.754395-19.0527363c7.1826134 9.4462891 7.5751915 23.4443378.9345703 33.2841797-6.6944237 9.9108849-20.0115967 14.6275902-31.2294922 11.546875-11.7172432-3.2291241-20.2907872-14.3605862-20.9624028-25.866209-1.6221065-27.5704508 34.5343213-40.95748 51.2573247-18.9648457z"/><path d="m5.4592013 16.8951511 3.6645513 1.8378906c.3721514.1852341.821785.0341644 1.0063477-.3349609.1855469-.3701172.0361328-.8203125-.3344727-1.0068359l-3.6645513-1.8378897c-.3701172-.1835938-.8208008-.0361328-1.0063477.3349609-.1855468.3701163-.0361327.8212882.3344727 1.006835z"/><path d="m13.122776 12.6656599c-.9165039-1.5996094-2.0942383-3.0126953-3.5004883-4.2001953-.3159179-.2675781-.7895507-.2265625-1.0571289.0898437-.2670898.3164063-.2270507.7890625.0893555 1.0566407 1.2719727 1.0732422 2.3374023 2.3515625 3.1665039 3.7998047.2050161.3566132.6615591.4848394 1.0239258.2773438.359375-.2050782.4833984-.6640626.277832-1.0234376z"/><path d="m17.0905495 10.9449568c.4086914-.0654297.6875-.4492188.6220703-.8583984l-.6665039-4.1660161c-.0654297-.4101563-.4472656-.6923828-.859375-.6220703-.4086914.0654297-.6875.4492188-.6220703.8583984l.6665039 4.1660161c.0665779.4159727.4608249.6892948.859375.6220703z"/><path d="m29.6193581 26.7545261c1.2523975-.7166271 1.9627056-1.9169559 2.8081055-2.8222656 2.796772-2.9862785 8.2312851-3.1109371 9.7387695.828125.3769531.9853516.3427734 1.9804688-.0957031 2.8007813-2.1806412 4.0749969-10.5143032 2.34058-11.8608398 11.3095722-.3369141 2.2431641-.0820313 4.4775391.1640625 6.6386719.0947266.8320313.237793 2.0888672 1.1352539 2.9462891 1.0872421 1.0406761 3.4595299.9406128 3.7592773-.5908203.631012-3.220871-1.1934509-6.6458092.1269531-9.1904297 1.563015-3.0155258 6.4141579-3.4365234 9.4755859-5.40625 4.1728516-2.6884785 5.5170898-8.5410175 2.9360352-12.7802753-2.4453125-4.0146484-8.0634766-6.1816397-13.0654297-5.046874-4.7988281 1.0908194-8.7451172 4.9804678-9.8193359 9.6796865-.4652978 2.0328902 3.0651473 2.5690802 4.6972656 1.6337889zm5.4541015-9.8505859c4.4052734-1.0029287 9.3266602.8740234 11.4521484 4.3632813 2.1689453 3.5625 1.0390625 8.4804688-2.4672852 10.7392597-3.0931854 1.992981-8.0468979 2.2192764-9.9951172 5.9765625-1.6209373 3.1262093.3039932 6.6211815-.2626953 9.5732422-.1723633.1357422-.9350586.1210938-1.2548828-.1845703-.4672852-.4462891-.5849609-1.1845703-.6816406-2.0322266-.2353516-2.0644531-.4785156-4.1992188-.1708984-6.2460938 1.2132492-8.0835342 9.0944824-5.9545631 11.699707-10.8251972.6474609-1.2099609.7089844-2.6455078.1743164-4.0439453-1.8884888-4.9339123-8.6070328-5.1911888-12.2348633-1.3173828-.8811989.9428997-1.4914684 1.9924984-2.4594727 2.546875-.7036133.4052734-2.2744141.2441406-2.4887695.0009766.9492189-4.1484375 4.4409181-7.584961 8.6894532-8.5507813z"/><path d="m34.3302956 51.3824577c-.8224716-.8475494-3.8730431.8416405-3.7685547 3.4785156.0732765 1.8235779 1.6823845 3.3974609 3.5151367 3.3974609 2.8057404 0 4.7213554-3.416851 2.5366211-5.7675781-.6147461-.6611327-1.4438477-1.0624999-2.2832031-1.1083984zm-.2832032 5.3759766c-.9995117-.0175781-1.9462891-.9501953-1.9863281-1.9570313-.0380859-.9599609.7246094-1.9130859 1.6660156-2.125.128418.1210938.2998047.1972656.4897461.203125.980648.0309029 1.8840408 1.0081596 1.8422813 1.9980469-.0400352.9853516-1.048336 1.9042969-2.0117149 1.8808594z"/></g></svg>